<?xml version="1.0" encoding="utf-8"?>
<!-- Generator: Adobe Illustrator 19.0.0, SVG Export Plug-In . SVG Version: 6.00 Build 0)  -->
<svg version="1.1" id="layer" xmlns="http://www.w3.org/2000/svg" xmlns:xlink="http://www.w3.org/1999/xlink" x="0px" y="0px"
	 viewBox="-153 -46 652 652" style="enable-background:new -153 -46 652 652;" xml:space="preserve">
<style type="text/css">
	.st0{fill:#002396;}
	.st1{fill:#AFB4B9;}
</style>
<path class="st0" d="M-37.9,290.6l-52.2-90.3H-132l86.5,149.8l34.3-59.4l-44.6-77.3l-7.6-13.1h-15l52.1,90.4l-19.1,33.2l-63.8-110.5
	h11.6l52.2,90.2L-37.9,290.6z"/>
<path class="st1" d="M-30.7,236.8l25.3,43.8L41,200.3h-51h-14.9l19.5,34l7.5-13.1l-4.5-7.8h20.6l-23.6,40.9l-10.3-17.7l-21-36.3h-15
	L-30.7,236.8z"/>
<path class="st0" d="M177.1,264v-28h8.4V281h-5.3v0.1l-23.6-30.3v30.3h-8.4v-44.9h6.9L177.1,264z M235.8,236.2h8.4v25.7
	c0,6.4-1.8,11.4-5.4,14.9c-3.5,3.4-8.3,5.2-14.1,5.2c-5.7,0-10.4-1.8-14.2-5.2c-3.8-3.4-5.7-8.5-5.7-14.9v-25.7h8.4v25.7
	c0,4,1.1,7,3.2,9.2c2.1,2.2,4.9,3.2,8.4,3.2c3.4,0,6.2-1.1,8.1-3.3c1.9-2.2,2.8-5.2,2.8-9.1L235.8,236.2L235.8,236.2z M298.4,243.5
	l-6.7,3.4c-0.8-1.3-2.2-2.5-4.2-3.5c-1.9-1-4.1-1.5-6.4-1.5c-3,0-5.4,0.6-6.9,1.7c-1.6,1.1-2.3,2.5-2.3,4.3c0,1.3,0.5,2.3,1.5,3
	c1,0.8,2.2,1.3,3.4,1.7c1.3,0.3,3,0.7,5.1,0.9c2.1,0.3,3.9,0.6,5.5,0.9c1.6,0.3,3.2,0.8,4.8,1.6c1.7,0.7,3,1.5,4.1,2.5
	c1.1,0.9,1.9,2.3,2.6,3.9c0.7,1.6,1,3.4,1,5.5c0,3.2-0.9,5.9-2.7,8.1c-1.8,2.2-4.1,3.8-6.9,4.8c-2.8,0.9-5.9,1.4-9.3,1.4
	c-10,0-16.6-3.7-19.6-11l7-3.7c0.9,2.3,2.6,4.1,4.8,5.4c2.3,1.2,4.8,1.8,7.8,1.8c2.9,0,5.4-0.6,7.4-1.7c1.9-1.1,2.9-2.8,2.9-5.1
	c0-3.7-3.4-5.9-10.4-6.6c-2.6-0.3-4.8-0.7-6.7-1.2s-3.7-1.3-5.5-2.2c-1.8-1-3.2-2.3-4.1-4c-0.9-1.7-1.3-3.8-1.3-6.2
	c0-2.9,0.9-5.4,2.7-7.4c1.8-2.1,3.9-3.5,6.4-4.4c2.5-0.8,5.3-1.3,8.2-1.3C289.6,234.6,295.4,237.6,298.4,243.5z M348.8,236.2h8.4
	v25.7c0,6.4-1.8,11.4-5.4,14.9c-3.5,3.4-8.3,5.2-14.1,5.2c-5.7,0-10.4-1.8-14.2-5.2c-3.8-3.4-5.7-8.5-5.7-14.9v-25.7h8.4v25.7
	c0,4,1.1,7,3.2,9.2c2.1,2.2,4.9,3.2,8.4,3.2c3.4,0,6.2-1.1,8.1-3.3c1.9-2.2,2.8-5.2,2.8-9.1L348.8,236.2L348.8,236.2z M381.5,281
	h-9.2l20.1-44.9h9.2l20.1,44.9h-9.2l-15.5-35.4L381.5,281z M436.5,236.1h8.4v37.1H468v7.8h-31.5V236.1z M119.4,236.2h8.4v25.7
	c0,6.4-1.8,11.4-5.4,14.9c-3.5,3.4-8.3,5.2-14.1,5.2c-5.7,0-10.4-1.8-14.2-5.2c-3.8-3.4-5.7-8.5-5.7-14.9v-25.7h8.4v25.7
	c0,4,1.1,7,3.2,9.2c2.1,2.2,4.9,3.2,8.4,3.2c3.4,0,6.2-1.1,8.1-3.3c1.9-2.2,2.8-5.2,2.8-9.1L119.4,236.2L119.4,236.2z"/>
<path class="st1" d="M405.6,298.4l-3.1,1.6c-0.4-0.7-1-1.2-1.9-1.7c-0.9-0.4-1.9-0.7-3-0.7c-1.4,0-2.5,0.3-3.3,0.8
	c-0.7,0.5-1.1,1.2-1.1,2c0,0.6,0.3,1.1,0.7,1.4c0.4,0.3,1,0.7,1.6,0.8c0.6,0.2,1.4,0.3,2.3,0.4c1,0.1,1.8,0.3,2.6,0.4
	c0.8,0.2,1.5,0.4,2.3,0.8c0.8,0.3,1.4,0.8,1.9,1.2c0.5,0.4,0.9,1,1.2,1.8c0.3,0.8,0.5,1.6,0.5,2.6c0,1.5-0.4,2.8-1.3,3.8
	c-0.8,1-1.9,1.8-3.2,2.2c-1.3,0.4-2.8,0.7-4.3,0.7c-4.7,0-7.7-1.7-9.1-5.1l3.3-1.7c0.4,1.1,1.2,1.9,2.3,2.5c1.1,0.6,2.3,0.8,3.6,0.8
	c1.3,0,2.5-0.3,3.4-0.8c0.9-0.5,1.3-1.3,1.3-2.3c0-1.7-1.6-2.8-4.8-3.1c-1.3-0.2-2.3-0.3-3.1-0.6c-0.8-0.3-1.8-0.6-2.6-1
	c-0.8-0.4-1.5-1.1-1.9-1.8c-0.4-0.8-0.7-1.8-0.7-2.8c0-1.3,0.4-2.5,1.3-3.4c0.8-0.9,1.8-1.6,3-2c1.2-0.4,2.4-0.6,3.8-0.6
	C401.5,294.2,404.3,295.6,405.6,298.4z M372.8,312v3.9h-15.6v-20.9h15.6v3.9h-11.7v4.8h11.3v3.7h-11.3v4.7L372.8,312L372.8,312z
	 M333.2,298.6h-6v6.7h6c1.2,0,2.1-0.3,2.7-1c0.6-0.7,0.9-1.4,0.9-2.3c0-0.9-0.3-1.7-0.9-2.3C335.3,298.9,334.4,298.6,333.2,298.6z
	 M341.8,315.6v0.3h-4.7l-6.1-7h-3.8v7h-3.9v-20.9c1.1,0,2.8,0,5,0c2.2,0,3.8,0,4.9,0c2.3,0,4.2,0.7,5.5,2c1.3,1.3,2,3,2,4.9
	c0,1.6-0.4,3-1.3,4.2c-0.8,1.2-2.2,2-4,2.3L341.8,315.6z M301.8,295h3.9v12c0,3-0.8,5.4-2.5,6.9c-1.7,1.6-3.8,2.4-6.6,2.4
	c-2.7,0-4.8-0.8-6.6-2.4c-1.8-1.6-2.7-3.9-2.7-6.9v-12h3.9v12c0,1.8,0.5,3.3,1.4,4.3c1,1,2.3,1.5,3.9,1.5c1.6,0,2.8-0.5,3.8-1.5
	c0.9-1,1.3-2.4,1.3-4.3L301.8,295L301.8,295z M260.7,315.8v-17.3h-6.6v-3.6h17.2v3.6h-6.6v17.3H260.7z M233.9,307.9v-13h3.9v20.9
	h-2.4l-11-14.1v14.1h-3.9v-20.9h3.2L233.9,307.9z M203.4,312v3.9h-15.6v-20.9h15.6v3.9h-11.7v4.8H203v3.7h-11.3v4.7L203.4,312
	L203.4,312z M171.6,294.9l-8.7,21h-4.1l-8.7-21h4.4l6.3,16.2l6.4-16.2H171.6z"/>
</svg>
